HIERARCHY
ROOT Hips
{
	OFFSET 0.0000 0.0000 0.0000
	CHANNELS 6 Xposition Yposition Zposition Zrotation Xrotation Yrotation
	JOINT Ab
	{
		OFFSET -0.0000 8.0846 -0.0000
		CHANNELS 3 Zrotation Xrotation Yrotation
		JOINT Chest
		{
			OFFSET -0.0000 25.0068 -0.0000
			CHANNELS 3 Zrotation Xrotation Yrotation
			JOINT Neck
			{
				OFFSET -0.0000 25.0068 0.0000
				CHANNELS 3 Zrotation Xrotation Yrotation
				JOINT Head
				{
					OFFSET -0.0000 10.7556 0.0000
					CHANNELS 3 Zrotation Xrotation Yrotation
					End Site
					{
						OFFSET -0.0000 16.6222 0.0000
					}
				}
			}
			JOINT LeftCollar
			{
				OFFSET -0.0000 25.0068 0.0000
				CHANNELS 3 Zrotation Xrotation Yrotation
				JOINT LeftShoulder
				{
					OFFSET 19.5556 -0.0000 0.0000
					CHANNELS 3 Zrotation Xrotation Yrotation
					JOINT LeftElbow
					{
						OFFSET 27.1828 0.0000 0.0000
						CHANNELS 3 Zrotation Xrotation Yrotation
						JOINT LeftWrist
						{
							OFFSET 23.3157 0.0000 0.0000
							CHANNELS 3 Zrotation Xrotation Yrotation
							End Site
							{
								OFFSET 0.0000 -14.6667 0.0000
							}
						}
					}
				}
			}
			JOINT RightCollar
			{
				OFFSET -0.0000 25.0068 0.0000
				CHANNELS 3 Zrotation Xrotation Yrotation
				JOINT RightShoulder
				{
					OFFSET -19.5556 0.0000 0.0000
					CHANNELS 3 Zrotation Xrotation Yrotation
					JOINT RightElbow
					{
						OFFSET -27.1828 0.0000 0.0000
						CHANNELS 3 Zrotation Xrotation Yrotation
						JOINT RightWrist
						{
							OFFSET -23.3157 0.0000 0.0000
							CHANNELS 3 Zrotation Xrotation Yrotation
							End Site
							{
								OFFSET -0.0000 -14.6667 0.0000
							}
						}
					}
				}
			}
		}
	}
	JOINT LeftHip
	{
		OFFSET 11.7333 0.0000 0.0000
		CHANNELS 3 Zrotation Xrotation Yrotation
		JOINT LeftKnee
		{
			OFFSET -0.0000 -40.8688 0.0000
			CHANNELS 3 Zrotation Xrotation Yrotation
			JOINT LeftAnkle
			{
				OFFSET -0.0000 -44.4337 0.0000
				CHANNELS 3 Zrotation Xrotation Yrotation
				End Site
				{
					OFFSET -0.0000 -4.8889 16.6222
				}
			}
		}
	}
	JOINT RightHip
	{
		OFFSET -11.7333 0.0000 0.0000
		CHANNELS 3 Zrotation Xrotation Yrotation
		JOINT RightKnee
		{
			OFFSET -0.0000 -40.8688 0.0000
			CHANNELS 3 Zrotation Xrotation Yrotation
			JOINT RightAnkle
			{
				OFFSET -0.0000 -44.4337 0.0000
				CHANNELS 3 Zrotation Xrotation Yrotation
				End Site
				{
					OFFSET -0.0000 -4.8889 16.6222
				}
			}
		}
	}
}
MOTION
Frames: 8
Frame Time: 0.010000
-10.4901 87.5996 51.1715 4.4106 0.7528 170.9746 359.8607 2.3175 358.1959 0.3112 15.0323 358.1536 4.3513 354.0176 1.9885 355.6702 21.6521 2.5871 339.5824 358.8225 6.5757 303.8585 29.7580 349.5053 14.3010 355.5483 324.6391 82.6050 1.0090 337.1169 21.9617 359.2007 355.9464 58.4224 40.0825 11.2543 338.0039 353.8724 30.8062 278.0519 352.7599 20.4231 358.4805 2.8249 356.9521 357.3667 9.1548 358.8499 4.0677 352.3040 23.4331 3.5741 336.2669 4.1416 1.1264 21.3656 0.7471 356.6258 354.7759 332.8836 
-10.4432 87.5682 50.8852 4.3751 0.7742 171.1277 359.8245 2.3298 358.2067 0.3358 15.1151 358.1605 4.4058 354.0085 1.9089 355.6777 21.6469 2.5031 339.5616 358.8483 6.4713 303.5309 29.3510 349.9189 13.9221 355.6593 324.6172 82.7811 1.0638 336.6967 21.8880 359.2060 355.8859 58.6688 39.7656 11.0829 338.2244 353.9632 30.7499 278.2280 352.9405 21.1573 358.4635 2.9831 357.0317 357.3596 9.2255 358.8150 4.0196 352.1318 23.2729 3.5669 336.1247 4.3375 1.0895 20.5988 0.6462 356.5752 354.9959 333.5120 
-10.3885 87.5345 50.5830 4.3395 0.8424 171.2864 359.7676 2.3971 358.2167 0.3914 15.1672 358.1585 4.4552 354.0256 1.8251 355.6830 21.6250 2.4141 339.5070 358.8703 6.3665 303.2672 29.1120 350.3277 13.6801 355.7119 324.5894 82.7058 1.2211 336.2838 21.8942 359.1659 355.8316 58.7037 39.6954 10.8586 338.2902 353.9790 30.6654 278.4638 353.1877 21.3490 358.4463 3.2146 357.0471 357.3437 9.2550 358.8799 3.7314 351.8362 23.0495 3.5581 336.0413 4.5648 1.0427 19.9222 0.6806 356.5868 355.0624 334.4184 
-10.3269 87.4936 50.2880 4.2998 0.7392 171.4334 359.7377 2.2622 358.2314 0.4353 15.2505 358.1693 4.5027 354.0206 1.7446 355.6975 21.6216 2.3261 339.4489 358.8294 6.3074 303.0102 28.9193 350.7363 13.4413 355.7649 324.5331 82.7730 1.3032 335.7929 21.8831 359.1667 355.7633 58.7900 39.5043 10.6700 338.4526 354.0516 30.5468 278.7147 353.3007 21.4024 358.4673 3.1527 357.1442 357.3025 9.5327 358.8145 3.5318 351.4289 22.9199 3.5795 335.7644 4.8119 1.0069 19.3682 0.8584 356.8928 355.1532 333.4923 
-10.2540 87.4571 49.9670 4.2824 0.8033 171.5657 359.6816 2.2653 358.2747 0.5025 15.3890 358.2006 4.5740 353.9464 1.6649 355.6786 21.6767 2.2452 339.4726 358.8601 6.1893 302.6288 28.3130 351.1720 12.9542 355.9541 324.4496 82.7351 1.3971 335.0810 21.8293 359.1707 355.7254 58.9359 39.3401 10.4986 338.5696 354.1524 30.3363 278.7829 353.3821 21.3654 358.4687 3.3834 357.3823 357.3380 9.6051 358.6840 2.8455 351.1481 22.5361 3.6049 335.6809 5.0915 0.9660 18.8783 0.6199 359.6295 353.0079 337.7163 
-10.1813 87.4216 49.6517 4.2504 0.8515 171.7398 359.6519 2.3113 358.2775 0.5373 15.4222 358.1978 4.6223 353.9596 1.5642 355.7277 21.6543 2.1327 339.4356 358.8906 6.1061 302.4144 28.0713 351.5469 12.6949 356.0104 324.3811 82.6968 1.4729 334.7449 21.8065 359.1526 355.6897 59.1730 39.0654 10.1948 338.7607 354.2072 30.1768 278.7111 353.5646 21.5017 358.4797 3.5985 357.4469 357.3196 9.6563 358.5763 2.6433 350.8669 22.4942 3.6052 335.5446 5.1144 0.8582 18.5637 0.9166 356.8235 355.1643 334.5509 
-10.1079 87.3842 49.3325 4.1958 0.8525 171.8939 359.5779 2.2675 358.3422 0.5963 15.5220 358.2531 4.6821 353.9279 1.4716 355.7432 21.6532 2.0360 339.3929 358.9259 6.0385 302.2061 27.7418 351.8793 12.3125 356.1322 324.2885 82.8758 1.5185 334.2277 21.7519 359.1911 355.6529 59.3652 38.8050 9.9930 338.8918 354.3149 29.8526 278.7943 353.2276 21.2456 358.4583 3.7640 357.5210 357.3259 9.7123 358.5519 2.5530 350.6617 22.3344 3.5851 335.4153 5.5825 0.8676 18.2931 0.8691 357.7598 354.8189 335.5498 
-10.0293 87.3447 48.9977 4.1518 0.9036 172.0762 359.2935 2.1019 358.5330 0.9433 15.9450 358.3868 4.8420 353.7323 1.2446 355.5680 21.6417 1.8159 339.2619 358.8840 5.9565 302.1948 28.0541 351.9527 12.4167 356.0087 324.3008 82.5894 1.5813 334.3107 21.5494 359.1542 355.4978 59.5922 38.5630 9.9420 338.8182 354.3125 29.6964 278.8345 353.2399 21.1656 358.4985 4.0745 356.8790 357.1226 9.5881 358.9707 2.5184 350.5324 22.4019 3.5394 335.3218 5.5738 0.8091 18.0395 0.8788 357.5594 355.0138 335.5995 
